<?xml version="1.0" encoding="iso-8859-1"?>
<!-- Generator: Adobe Illustrator 19.0.0, SVG Export Plug-In . SVG Version: 6.00 Build 0)  -->
<svg version="1.1" id="Capa_1" xmlns="http://www.w3.org/2000/svg" xmlns:xlink="http://www.w3.org/1999/xlink" x="0px" y="0px"
	 viewBox="0 0 41 41" style="enable-background:new 0 0 41 41;" xml:space="preserve">
<g>
	<path d="M36.01,16.5H36V11c0-4.136-3.368-7.5-7.508-7.5H12.508C8.368,3.5,5,6.864,5,11v5.5H4.99C2.239,16.5,0,18.747,0,21.51v5.99
		v1v4v5h2v-4h37v4h2v-5v-4v-1v-5.99C41,18.747,38.761,16.5,36.01,16.5z M7,11c0-3.032,2.471-5.5,5.508-5.5h15.983
		C31.529,5.5,34,7.968,34,11v5.5h-5v-6c0-0.409-0.249-0.776-0.628-0.929C28.16,9.487,23.162,7.5,20.5,7.5s-7.66,1.987-7.872,2.071
		C12.249,9.724,12,10.091,12,10.5v6H7V11z M27,11.187V16.5H14v-5.314C15.674,10.56,18.849,9.5,20.5,9.5
		C22.149,9.5,25.325,10.56,27,11.187z M39,31.5H2v-3h37V31.5z M39,26.5H2v-4.99c0-1.659,1.341-3.01,2.99-3.01H6h7h15h7h1.01
		c1.649,0,2.99,1.351,2.99,3.01V26.5z"/>
</g>
<g>
</g>
<g>
</g>
<g>
</g>
<g>
</g>
<g>
</g>
<g>
</g>
<g>
</g>
<g>
</g>
<g>
</g>
<g>
</g>
<g>
</g>
<g>
</g>
<g>
</g>
<g>
</g>
<g>
</g>
</svg>
