<?xml version="1.0" encoding="iso-8859-1"?>
<!-- Generator: Adobe Illustrator 19.0.0, SVG Export Plug-In . SVG Version: 6.00 Build 0)  -->
<svg version="1.1" id="Layer_1" xmlns="http://www.w3.org/2000/svg" xmlns:xlink="http://www.w3.org/1999/xlink" x="0px" y="0px"
	 viewBox="0 0 512 512" style="enable-background:new 0 0 512 512;" xml:space="preserve">
<g transform="translate(0 -1)">
	<g>
		<g>
			<path d="M503.467,137.535h-10.405l-14.108-56.43c9.597-6.041,15.979-16.722,15.979-28.901c0-18.853-15.281-34.133-34.133-34.133
				c-18.853,0-34.133,15.281-34.133,34.133c0,12.179,6.382,22.86,15.979,28.901l-14.108,56.43h-10.405
				c-4.713,0-8.533,3.82-8.533,8.533v8.536H102.4v-8.536c0-4.713-3.821-8.533-8.533-8.533H83.462l-14.107-56.43
				c9.597-6.041,15.979-16.722,15.979-28.901c0-18.853-15.281-34.133-34.133-34.133c-18.853,0-34.133,15.281-34.133,34.133
				c0,12.179,6.382,22.86,15.979,28.901l-14.107,56.43H8.533c-4.713,0-8.533,3.82-8.533,8.533v34.133
				c0,4.713,3.82,8.533,8.533,8.533h8.533v51.203c-4.713,0-8.533,3.82-8.533,8.533v187.725c0,11.378,17.067,11.378,17.067,0
				c0-45.716,39.951-76.792,110.933-76.792s110.933,31.075,110.933,76.792c0,11.378,17.067,11.378,17.067,0
				c0-45.716,39.951-76.792,110.933-76.792S486.4,390.48,486.4,436.196c0,11.378,17.067,11.378,17.067,0V248.471
				c0-4.713-3.82-8.533-8.533-8.533v-51.203h8.533c4.713,0,8.533-3.82,8.533-8.533v-34.133
				C512,141.356,508.18,137.535,503.467,137.535z M460.8,35.138c9.427,0,17.067,7.64,17.067,17.067
				c0,9.427-7.64,17.067-17.067,17.067c-9.427,0-17.067-7.64-17.067-17.067C443.733,42.778,451.373,35.138,460.8,35.138z
				 M458.929,86.338h3.741l12.799,51.197h-29.34L458.929,86.338z M349.867,239.938v-68.267h25.6v68.267H349.867z M307.2,239.938
				v-68.267h25.6v68.267H307.2z M264.533,239.938v-68.267h25.6v68.267H264.533z M179.2,239.938v-68.267h25.6v68.267H179.2z
				 M136.533,239.938v-68.267h25.6v68.267H136.533z M221.867,171.671h25.6v68.267h-25.6V171.671z M76.8,171.669H25.6h-8.533v-17.067
				h8.491c0.014,0,0.028,0.003,0.043,0.003h51.2c0.014,0,0.028-0.002,0.043-0.003h8.491v17.067H76.8z M51.2,35.138
				c9.427,0,17.067,7.64,17.067,17.067c0,9.427-7.64,17.067-17.067,17.067c-9.427,0-17.067-7.64-17.067-17.067
				C34.133,42.778,41.773,35.138,51.2,35.138z M49.329,86.338h3.741l12.799,51.197H36.53L49.329,86.338z M68.267,188.735v51.2
				H34.133v-51.2H68.267z M85.333,188.735h8.533c4.713,0,8.533-3.82,8.533-8.533v-8.531h17.067v68.267H85.333V188.735z
				 M136.533,342.338c-51.727,0-90.277,15.896-110.933,42.453V257.005h221.867v127.819
				C226.815,358.253,188.275,342.338,136.533,342.338z M375.467,342.338c-51.741,0-90.281,15.915-110.933,42.485V257.005H486.4
				v127.786C465.744,358.234,427.194,342.338,375.467,342.338z M392.533,239.938v-68.267H409.6v8.531
				c0,4.713,3.82,8.533,8.533,8.533h8.533v51.203H392.533z M477.867,239.935h-34.133v-51.2h34.133V239.935z M494.933,171.669H486.4
				h-51.2h-8.533v-17.067h8.491c0.014,0,0.028,0.003,0.043,0.003h51.2c0.014,0,0.028-0.002,0.043-0.003h8.491V171.669z"/>
			<path d="M76.8,274.062H59.733c-4.713,0-8.533,3.821-8.533,8.533s3.82,8.533,8.533,8.533H76.8c4.713,0,8.533-3.82,8.533-8.533
				S81.513,274.062,76.8,274.062z"/>
			<path d="M213.336,274.062h-17.067c-4.713,0-8.533,3.821-8.533,8.533s3.82,8.533,8.533,8.533h17.067
				c4.713,0,8.533-3.82,8.533-8.533S218.049,274.062,213.336,274.062z"/>
			<path d="M145.069,299.662h-17.067c-4.713,0-8.533,3.82-8.533,8.533s3.82,8.533,8.533,8.533h17.067
				c4.713,0,8.533-3.82,8.533-8.533S149.782,299.662,145.069,299.662z"/>
			<path d="M315.733,274.062h-17.067c-4.713,0-8.533,3.821-8.533,8.533s3.82,8.533,8.533,8.533h17.067
				c4.713,0,8.533-3.82,8.533-8.533S320.446,274.062,315.733,274.062z"/>
			<path d="M452.269,274.062h-17.067c-4.713,0-8.533,3.821-8.533,8.533s3.82,8.533,8.533,8.533h17.067
				c4.713,0,8.533-3.82,8.533-8.533S456.982,274.062,452.269,274.062z"/>
			<path d="M384.003,299.662h-17.067c-4.713,0-8.533,3.82-8.533,8.533s3.82,8.533,8.533,8.533h17.067
				c4.713,0,8.533-3.82,8.533-8.533S388.715,299.662,384.003,299.662z"/>
			<path d="M85.333,461.795c-4.713,0-8.533,3.82-8.533,8.533c0,4.716-3.817,8.533-8.533,8.533s-8.533-3.817-8.533-8.533
				c0-4.713-3.82-8.533-8.533-8.533s-8.533,3.82-8.533,8.533c0,14.142,11.458,25.6,25.6,25.6s25.6-11.458,25.6-25.6
				C93.867,465.616,90.046,461.795,85.333,461.795z"/>
			<path d="M221.867,461.795c-4.713,0-8.533,3.82-8.533,8.533c0,4.716-3.817,8.533-8.533,8.533c-4.716,0-8.533-3.817-8.533-8.533
				c0-4.713-3.82-8.533-8.533-8.533s-8.533,3.82-8.533,8.533c0,14.142,11.458,25.6,25.6,25.6s25.6-11.458,25.6-25.6
				C230.4,465.616,226.58,461.795,221.867,461.795z"/>
			<path d="M153.6,419.129c-4.713,0-8.533,3.82-8.533,8.533c0,4.716-3.817,8.533-8.533,8.533S128,432.378,128,427.662
				c0-4.713-3.82-8.533-8.533-8.533s-8.533,3.82-8.533,8.533c0,14.142,11.458,25.6,25.6,25.6s25.6-11.458,25.6-25.6
				C162.133,422.949,158.313,419.129,153.6,419.129z"/>
			<path d="M324.267,461.795c-4.713,0-8.533,3.82-8.533,8.533c0,4.716-3.817,8.533-8.533,8.533s-8.533-3.817-8.533-8.533
				c0-4.713-3.82-8.533-8.533-8.533s-8.533,3.82-8.533,8.533c0,14.142,11.458,25.6,25.6,25.6s25.6-11.458,25.6-25.6
				C332.8,465.616,328.979,461.795,324.267,461.795z"/>
			<path d="M460.8,461.795c-4.713,0-8.533,3.82-8.533,8.533c0,4.716-3.817,8.533-8.533,8.533c-4.716,0-8.533-3.817-8.533-8.533
				c0-4.713-3.82-8.533-8.533-8.533s-8.533,3.82-8.533,8.533c0,14.142,11.458,25.6,25.6,25.6s25.6-11.458,25.6-25.6
				C469.333,465.616,465.513,461.795,460.8,461.795z"/>
			<path d="M392.533,419.129c-4.713,0-8.533,3.82-8.533,8.533c0,4.716-3.817,8.533-8.533,8.533s-8.533-3.817-8.533-8.533
				c0-4.713-3.82-8.533-8.533-8.533s-8.533,3.82-8.533,8.533c0,14.142,11.458,25.6,25.6,25.6s25.6-11.458,25.6-25.6
				C401.067,422.949,397.246,419.129,392.533,419.129z"/>
		</g>
	</g>
</g>
<g>
</g>
<g>
</g>
<g>
</g>
<g>
</g>
<g>
</g>
<g>
</g>
<g>
</g>
<g>
</g>
<g>
</g>
<g>
</g>
<g>
</g>
<g>
</g>
<g>
</g>
<g>
</g>
<g>
</g>
</svg>
