<?xml version="1.0" encoding="iso-8859-1"?>
<!-- Generator: Adobe Illustrator 17.1.0, SVG Export Plug-In . SVG Version: 6.00 Build 0)  -->
<!DOCTYPE svg PUBLIC "-//W3C//DTD SVG 1.1//EN" "http://www.w3.org/Graphics/SVG/1.1/DTD/svg11.dtd">
<svg version="1.1" id="Capa_1" xmlns="http://www.w3.org/2000/svg" xmlns:xlink="http://www.w3.org/1999/xlink" x="0px" y="0px"
	 viewBox="0 0 331.799 331.799" style="enable-background:new 0 0 331.799 331.799;" xml:space="preserve">
<path d="M323.529,142.012c-5.595-1.309-11.296-2.329-16.949-3.033c-88.085-10.972-168.654,51.772-179.623,139.851
	c-0.982,7.893-1.383,15.853-1.199,23.784C62.677,287.188,18,230.953,18,164.856C18,86.628,81.644,22.985,159.872,22.985
	c27.61,0,54.133,7.847,77.095,22.753c-11.664,14.327-10.13,35.511,3.764,47.98l19.271,17.293c3.699,3.321,9.391,3.013,12.709-0.688
	l1.916-2.135l14.575,13.077c3.699,3.319,9.391,3.011,12.71-0.688c3.319-3.7,3.011-9.391-0.688-12.71l-14.574-13.076l15.563-17.342
	l14.576,13.076c3.7,3.319,9.391,3.011,12.709-0.689c3.319-3.699,3.011-9.39-0.689-12.709l-14.574-13.074l1.919-2.139
	c3.319-3.699,3.012-9.389-0.688-12.709l-19.269-17.293c-6.916-6.206-15.868-9.349-25.186-8.841
	c-8.229,0.445-15.858,3.68-21.801,9.186c-26.44-17.856-57.24-27.272-89.339-27.272C71.719,4.985,0,76.703,0,164.856
	c0,38.175,13.674,75.132,38.501,104.063c24.491,28.539,58.289,47.592,95.194,53.674c5.5,1.274,11.099,2.271,16.647,2.962
	c6.761,0.842,13.508,1.259,20.214,1.259c35.613,0,70.013-11.753,98.563-33.981c33.927-26.414,55.535-64.459,60.847-107.125
	c1.481-11.887,1.64-23.937,0.47-35.814C330.059,146.059,327.281,142.89,323.529,142.012z M251.465,56.471l8.86-9.873
	c2.994-3.336,7.134-5.308,11.659-5.553c0.316-0.017,0.632-0.025,0.946-0.025c4.179,0,8.142,1.505,11.244,4.289l12.571,11.282
	l-1.781,1.984c-0.047,0.05-0.094,0.101-0.14,0.152c-0.046,0.051-0.092,0.103-0.136,0.155L267.37,89.325
	c-0.044,0.047-0.087,0.095-0.13,0.143s-0.085,0.096-0.127,0.145l-1.788,1.992l-12.572-11.282
	C245.822,74.102,245.245,63.403,251.465,56.471z M312.105,183.482c-4.718,37.896-23.911,71.688-54.043,95.147
	c-29.322,22.828-65.587,33.216-102.435,29.413l82.352-72.147c3.738-3.275,4.114-8.962,0.839-12.7
	c-3.274-3.738-8.96-4.115-12.7-0.839l-82.337,72.135c0.136-4.488,0.482-8.975,1.037-13.438
	c9.743-78.229,81.313-133.947,159.537-124.213c2.88,0.359,5.774,0.811,8.659,1.351C313.455,166.611,313.15,175.091,312.105,183.482z
	"/>
<g>
</g>
<g>
</g>
<g>
</g>
<g>
</g>
<g>
</g>
<g>
</g>
<g>
</g>
<g>
</g>
<g>
</g>
<g>
</g>
<g>
</g>
<g>
</g>
<g>
</g>
<g>
</g>
<g>
</g>
</svg>
