<?xml version="1.0" encoding="iso-8859-1"?>
<!-- Generator: Adobe Illustrator 19.0.0, SVG Export Plug-In . SVG Version: 6.00 Build 0)  -->
<svg version="1.1" id="Layer_1" xmlns="http://www.w3.org/2000/svg" xmlns:xlink="http://www.w3.org/1999/xlink" x="0px" y="0px"
	 viewBox="0 0 512 512" style="enable-background:new 0 0 512 512;" xml:space="preserve">
<g>
	<g>
		<path d="M510.171,118.068l-59.555-85.543c-1.902-2.732-5.019-4.364-8.349-4.371c-0.008,0-0.015,0-0.021,0
			c-3.322,0-6.436,1.618-8.346,4.336l-60.098,85.543c-1.207,1.718-1.853,3.765-1.853,5.864v22.286h-45.654v-22.286
			c0-2.099-0.648-4.146-1.853-5.863l-60.097-85.543c-1.91-2.719-5.024-4.337-8.346-4.337c-0.007,0-0.015,0-0.021,0
			c-3.33,0.007-6.446,1.639-8.349,4.371l-59.555,85.543c-1.19,1.71-1.829,3.744-1.829,5.828v22.286h-46.195v-22.286
			c0-2.099-0.648-4.146-1.853-5.864L78.099,32.489c-1.91-2.718-5.024-4.336-8.346-4.336c-0.007,0-0.015,0-0.021,0
			c-3.33,0.007-6.446,1.639-8.349,4.371L1.829,118.068C0.638,119.777,0,121.812,0,123.896v349.752
			c0,5.632,4.567,10.199,10.199,10.199h119.652c5.632,0,10.199-4.567,10.199-10.199v-47.191h46.195v47.191
			c0,5.632,4.567,10.199,10.199,10.199h119.651c5.632,0,10.199-4.567,10.199-10.199v-47.191h45.654v47.191
			c0,5.632,4.567,10.199,10.199,10.199h119.653c5.632,0,10.199-4.567,10.199-10.199V123.896
			C512,121.812,511.362,119.777,510.171,118.068z M119.653,463.448L119.653,463.448H20.398V127.096l49.394-70.949l49.861,70.971
			V463.448z M186.246,406.059H140.05v-64.062h46.195V406.059z M186.246,321.599H140.05V251.04h46.195V321.599z M186.246,230.642
			H140.05V166.58h46.195V230.642z M305.899,463.448h-0.001h-99.253V127.095l49.394-70.948l49.86,70.971V463.448z M371.95,406.059
			h-45.654v-64.062h45.654V406.059z M371.95,321.599h-45.654V251.04h45.654V321.599z M371.95,230.642h-45.654V166.58h45.654V230.642
			z M491.602,463.448h-99.254V127.12l49.861-70.971l49.393,70.948V463.448z"/>
	</g>
</g>
<g>
	<g>
		<path d="M78.049,187.067c-3.984-3.982-10.44-3.982-14.424,0l-2.707,2.707c-3.983,3.983-3.983,10.441,0,14.425
			c1.992,1.991,4.602,2.987,7.212,2.987s5.22-0.996,7.212-2.987l2.707-2.707C82.032,197.509,82.032,191.05,78.049,187.067z"/>
	</g>
</g>
<g>
	<g>
		<path d="M78.049,367.357c-3.984-3.983-10.44-3.983-14.424,0l-2.707,2.707c-3.983,3.983-3.983,10.441,0,14.425
			c1.992,1.991,4.602,2.987,7.212,2.987s5.22-0.996,7.212-2.987l2.707-2.707C82.032,377.799,82.032,371.341,78.049,367.357z"/>
	</g>
</g>
<g>
	<g>
		<path d="M264.565,187.067c-3.984-3.982-10.44-3.982-14.424,0l-2.707,2.707c-3.983,3.983-3.983,10.441,0,14.425
			c1.992,1.991,4.602,2.987,7.212,2.987s5.22-0.996,7.212-2.987l2.707-2.707C268.548,197.509,268.548,191.05,264.565,187.067z"/>
	</g>
</g>
<g>
	<g>
		<path d="M264.565,367.357c-3.984-3.983-10.44-3.983-14.424,0l-2.707,2.707c-3.983,3.983-3.983,10.441,0,14.425
			c1.992,1.991,4.602,2.987,7.212,2.987s5.22-0.996,7.212-2.987l2.707-2.707C268.548,377.799,268.548,371.341,264.565,367.357z"/>
	</g>
</g>
<g>
	<g>
		<path d="M452.705,187.067c-3.984-3.982-10.44-3.982-14.425,0l-2.706,2.707c-3.983,3.983-3.983,10.441,0,14.425
			c1.992,1.991,4.602,2.987,7.212,2.987s5.22-0.996,7.212-2.987l2.707-2.707C456.688,197.509,456.688,191.05,452.705,187.067z"/>
	</g>
</g>
<g>
	<g>
		<path d="M452.706,367.356c-3.984-3.982-10.44-3.982-14.425,0l-2.707,2.707c-3.983,3.983-3.983,10.441,0,14.425
			c1.992,1.991,4.602,2.987,7.212,2.987c2.61,0,5.22-0.996,7.212-2.987l2.708-2.707C456.689,377.798,456.689,371.34,452.706,367.356
			z"/>
	</g>
</g>
<g>
	<g>
		<path d="M419.506,434.212h-3.248c-5.632,0-10.199,4.567-10.199,10.199s4.567,10.199,10.199,10.199h3.248
			c5.632,0,10.199-4.567,10.199-10.199S425.138,434.212,419.506,434.212z"/>
	</g>
</g>
<g>
	<g>
		<path d="M471.483,434.212h-18.409c-5.633,0-10.199,4.567-10.199,10.199c0,5.632,4.567,10.199,10.199,10.199h18.409
			c5.632,0,10.199-4.567,10.199-10.199S477.115,434.212,471.483,434.212z"/>
	</g>
</g>
<g>
</g>
<g>
</g>
<g>
</g>
<g>
</g>
<g>
</g>
<g>
</g>
<g>
</g>
<g>
</g>
<g>
</g>
<g>
</g>
<g>
</g>
<g>
</g>
<g>
</g>
<g>
</g>
<g>
</g>
</svg>
