<?xml version='1.0' encoding='iso-8859-1'?>
<!DOCTYPE svg PUBLIC '-//W3C//DTD SVG 1.1//EN' 'http://www.w3.org/Graphics/SVG/1.1/DTD/svg11.dtd'>
<svg version="1.1" xmlns="http://www.w3.org/2000/svg" viewBox="0 0 315.001 315.001" xmlns:xlink="http://www.w3.org/1999/xlink" enable-background="new 0 0 315.001 315.001">
  <path d="m308,258.29h-15.782v-197.768l21.872-38.578c1.229-2.167 1.213-4.823-0.041-6.976-1.254-2.152-3.558-3.477-6.049-3.477h-301c-2.491,0-4.795,1.324-6.049,3.477-1.254,2.152-1.27,4.809-0.041,6.976l21.872,38.578v197.768h-15.782c-3.866,0-7,3.134-7,7v31.219c0,3.866 3.134,7 7,7h301c3.866,0 7-3.134 7-7v-31.219c0-3.866-3.133-7-7-7zm-55.823,0v-136.244c0-3.866-3.134-7-7-7-17.891,0-36.464-10.706-52.851-20.151-13.373-7.709-24.922-14.366-34.825-14.366-9.904,0-21.454,6.657-34.828,14.366-16.387,9.445-34.96,20.151-52.85,20.151-3.866,0-7,3.134-7,7v136.244h-26.04v-192.615h241.436v192.615h-26.042zm-54.827,0c2.564-2.298 4.92-4.806 6.999-7.499 8.691-11.258 12.194-24.841 9.864-38.244-2.761-15.888-13.996-28.223-23.908-39.105-16.375-17.977-19.463-24.213-9.992-33.83 1.785-1.813 2.446-4.45 1.727-6.89-0.719-2.44-2.704-4.298-5.187-4.854-2.946-0.659-5.905-0.993-8.796-0.993-10.188,0-19.324,4.106-25.723,11.563-5.754,6.707-8.953,15.781-9.388,26.273-2.831-0.766-5.816-1.162-8.879-1.162-10.712,0-19.646,4.807-23.316,12.546-1.535,3.237-0.377,7.112 2.683,8.977 7.767,4.731 7.624,9.301 6.001,23.029-0.797,6.746-1.7,14.393-1.22,23.532 0.646,12.273 5.074,20.741 10.704,26.656h-42.095v-129.653c19.17-2.203 37.661-12.862 52.842-21.612 11.148-6.426 21.677-12.495 27.834-12.495 6.158,0 16.689,6.069 27.837,12.496 15.181,8.75 33.671,19.408 52.841,21.611v129.654h-40.828zm-79.653-79.621c1.816-0.71 4.025-1.119 6.372-1.119 4.569,0 8.905,1.538 11.897,4.22 2.2,1.971 5.404,2.351 8.005,0.942 2.6-1.407 4.035-4.297 3.586-7.219-1.819-11.835 0.1-21.757 5.403-27.939 2.533-2.952 5.737-4.964 9.438-5.959-5.806,15.627 6.92,29.596 17.556,41.273 9.048,9.933 18.403,20.204 20.466,32.074 1.938,11.149-2.343,24.077-12.395,33.162 1.066-3.069 1.858-6.271 2.184-9.484 0.723-7.158-1.045-13.534-5.111-18.437-1.571-1.893-4.02-2.821-6.449-2.449-1.708,0.262-3.231,1.141-4.309,2.43 0.514-2.89 0.745-5.975 0.513-9.143-0.728-9.898-5.85-18.352-14.814-24.445-2.094-1.424-4.792-1.607-7.06-0.477-2.266,1.13-3.745,3.395-3.868,5.925-0.248,5.108-3.862,10.177-8.047,16.046-7.148,10.026-16.315,22.886-10.635,41.854-4.355-4.018-7.755-9.955-8.232-19.025-0.418-7.948 0.411-14.965 1.143-21.154 1.343-11.372 2.625-22.227-5.643-31.076zm32.151,79.621c-13.056-20.092-5.772-30.328 2.615-42.092 2.39-3.353 4.819-6.759 6.754-10.406 0.661,1.332 1.129,2.74 1.41,4.232 1.514,8.044-2.944,16.758-4.345,18.865-1.146,1.491-1.654,3.398-1.373,5.293 0.341,2.294 1.796,4.271 3.885,5.277 2.504,1.207 5.18,1.818 7.952,1.818 3.279,0 6.449-0.848 9.299-2.393-1.321,7.313-6.39,15.566-9.289,19.404h-16.908zm146.137-232.796l-14.845,26.183h-247.279l-14.845-26.183h276.969zm5.015,264.017h-287v-17.219h287v17.219z"/>
</svg>
