<?xml version="1.0" encoding="iso-8859-1"?>
<!-- Generator: Adobe Illustrator 19.0.0, SVG Export Plug-In . SVG Version: 6.00 Build 0)  -->
<svg version="1.1" id="Layer_1" xmlns="http://www.w3.org/2000/svg" xmlns:xlink="http://www.w3.org/1999/xlink" x="0px" y="0px"
	 viewBox="0 0 512 512" style="enable-background:new 0 0 512 512;" xml:space="preserve">
<g>
	<g>
		<path d="M271.208,256.001h-30.417H0v208.466h26.205V512h459.589v-47.533H512V256.001H271.208z M30.417,286.418h210.374v147.631
			H56.623H30.417V286.418z M455.378,481.583h-0.001H56.623v-17.116h184.169h30.417h184.169V481.583z M481.583,434.049h-26.205
			H271.208V286.418h210.375V434.049z"/>
	</g>
</g>
<g>
	<g>
		<path d="M351.88,0H160.12L0,114.894v74.441h512v-74.441L351.88,0z M169.905,30.418h172.19l107.414,77.075H62.49L169.905,30.418z
			 M481.583,158.918H30.417v-21.009h451.166V158.918z"/>
	</g>
</g>
<g>
	<g>
		<rect x="153.597" y="306.697" width="61.848" height="30.417"/>
	</g>
</g>
<g>
	<g>
		<rect x="296.558" y="306.697" width="61.848" height="30.417"/>
	</g>
</g>
<g>
</g>
<g>
</g>
<g>
</g>
<g>
</g>
<g>
</g>
<g>
</g>
<g>
</g>
<g>
</g>
<g>
</g>
<g>
</g>
<g>
</g>
<g>
</g>
<g>
</g>
<g>
</g>
<g>
</g>
</svg>
