<?xml version="1.0" encoding="iso-8859-1"?>
<!-- Generator: Adobe Illustrator 19.0.0, SVG Export Plug-In . SVG Version: 6.00 Build 0)  -->
<svg version="1.1" id="Layer_1" xmlns="http://www.w3.org/2000/svg" xmlns:xlink="http://www.w3.org/1999/xlink" x="0px" y="0px"
	 viewBox="0 0 512.001 512.001" style="enable-background:new 0 0 512.001 512.001;" xml:space="preserve">
<g>
	<g>
		<path d="M428.551,264.968H275.898v-96.22l153.836,0.375c0.034,0,0.069,0,0.105,0c15.905,0,30.172-8.856,37.25-23.132
			c7.054-14.228,5.459-30.885-4.163-43.473c-23.822-31.164-54.867-56.965-89.784-74.615C336.512,9.388,296.991,0,255.675,0
			c-41.094,0-80.425,9.292-116.902,27.619C104.008,45.087,73.03,70.642,49.19,101.525c-9.677,12.534-11.35,29.178-4.367,43.434
			c7.025,14.342,21.296,23.276,37.243,23.315l154.037,0.375v96.318H83.448c-23.555,0-42.719,19.164-42.719,42.721v48.86
			c0,23.218,18.62,42.155,41.711,42.694v92.862c0,10.989,8.909,19.898,19.898,19.898s19.898-8.909,19.898-19.898v-92.835h267.372
			v92.835c0,10.989,8.909,19.898,19.898,19.898c10.989,0,19.898-8.909,19.898-19.898v-92.858
			c23.164-0.456,41.869-19.428,41.869-42.698v-48.86C471.27,284.132,452.108,264.968,428.551,264.968z M82.163,128.477
			c-0.385,0.001-1.101-0.001-1.601-1.024c-0.432-0.883-0.109-1.303,0.129-1.61c42.216-54.684,105.995-86.047,174.985-86.047
			c69.409,0,133.424,31.671,175.632,86.89c0.239,0.312,0.565,0.74,0.125,1.628c-0.504,1.016-1.206,1.021-1.602,1.013L82.163,128.477
			z M431.476,356.547h-0.001c0,1.557-1.366,2.925-2.925,2.925H83.448c-1.557,0-2.924-1.366-2.924-2.925v-48.86
			c0-1.557,1.366-2.925,2.924-2.925h345.103c1.557,0,2.925,1.366,2.925,2.925V356.547z"/>
	</g>
</g>
<g>
</g>
<g>
</g>
<g>
</g>
<g>
</g>
<g>
</g>
<g>
</g>
<g>
</g>
<g>
</g>
<g>
</g>
<g>
</g>
<g>
</g>
<g>
</g>
<g>
</g>
<g>
</g>
<g>
</g>
</svg>
