<?xml version="1.0" encoding="iso-8859-1"?>
<!-- Generator: Adobe Illustrator 18.0.0, SVG Export Plug-In . SVG Version: 6.00 Build 0)  -->
<!DOCTYPE svg PUBLIC "-//W3C//DTD SVG 1.1//EN" "http://www.w3.org/Graphics/SVG/1.1/DTD/svg11.dtd">
<svg version="1.1" id="Capa_1" xmlns="http://www.w3.org/2000/svg" xmlns:xlink="http://www.w3.org/1999/xlink" x="0px" y="0px"
	 viewBox="0 0 297 297" style="enable-background:new 0 0 297 297;" xml:space="preserve">
<path d="M296.264,109.761c-1.758-7.95-6.487-14.755-13.324-19.187c-6.88-4.755-12.641-4.803-16.463-4.836
	c-2.819-0.024-3.769-0.032-5.884-1.513c-2.116-1.481-2.448-2.369-3.435-5.006c-1.348-3.606-3.387-9.055-10.34-13.923
	c-6.953-4.866-12.771-4.916-16.62-4.95c-2.814-0.024-3.762-0.031-5.875-1.511c-2.115-1.481-2.447-2.369-3.432-5.005
	c-1.348-3.606-3.386-9.056-10.34-13.924c-6.951-4.866-12.768-4.914-16.618-4.947c-2.812-0.024-3.759-0.032-5.871-1.511
	c-2.115-1.479-2.446-2.367-3.431-5.003c-1.348-3.605-3.386-9.054-10.338-13.921c-9.999-6.999-12.684-7.551-23.295-7.499
	c-0.759,0.004-1.579,0.007-2.471,0.007c-0.878-0.022-1.718-0.004-2.479-0.006c-10.6-0.049-13.294,0.502-23.292,7.502
	c-6.953,4.868-8.991,10.317-10.34,13.924c-0.986,2.636-1.319,3.525-3.433,5.005c-2.115,1.48-3.063,1.488-5.877,1.512
	c-3.849,0.034-9.667,0.084-16.62,4.951c-6.953,4.867-8.99,10.317-10.339,13.923c-0.985,2.636-1.318,3.523-3.432,5.004
	c-2.111,1.478-3.058,1.486-5.869,1.509c-3.85,0.033-9.668,0.081-16.62,4.947c-6.952,4.868-8.989,10.317-10.338,13.923
	c-0.985,2.635-1.317,3.523-3.431,5.004c-2.107,1.475-3.06,1.481-5.889,1.502c-3.833,0.028-9.611,0.069-16.497,4.826
	c-14.188,9.195-18.344,28.168-9.252,42.395c2.491,3.898,5.738,7.069,9.443,9.42c-0.509,1.733-0.532,3.614,0.018,5.431
	c1.215,4.01,4.912,6.753,9.102,6.753h22.111v105.505c0,16.495,13.419,29.914,29.914,29.914h146.242
	c16.495,0,29.913-13.42,29.913-29.914V154.558h22.111c4.19,0,7.887-2.743,9.102-6.753c0.552-1.826,0.526-3.716,0.01-5.455
	c3.659-2.349,6.876-5.504,9.363-9.396C296.577,126.021,298.04,117.785,296.264,109.761z M24.482,106.474
	c0.111-0.071,0.223-0.146,0.332-0.222c2.107-1.475,3.06-1.482,5.889-1.502c3.863-0.028,9.703-0.07,16.66-4.94
	c6.953-4.867,8.99-10.317,10.339-13.923c0.985-2.636,1.318-3.523,3.431-5.003c2.111-1.478,3.058-1.486,5.869-1.509
	c3.85-0.033,9.668-0.081,16.62-4.948c6.953-4.867,8.99-10.317,10.339-13.923c0.985-2.636,1.318-3.523,3.431-5.004
	c2.115-1.48,3.063-1.488,5.877-1.512c3.849-0.033,9.667-0.084,16.621-4.95c6.953-4.868,8.991-10.317,10.34-13.924
	c0.986-2.636,1.319-3.525,3.434-5.005c2.997-2.099,5.07-3.466,6.143-3.799c0.932-0.289,3.005-0.279,6.156-0.266
	c0.776,0.004,1.614,0.007,2.524,0.007c0.924,0.021,1.803-0.005,2.602-0.008c3.145-0.016,5.225-0.024,6.155,0.264
	c1.072,0.333,3.144,1.699,6.141,3.798c2.114,1.479,2.446,2.367,3.431,5.003c1.348,3.606,3.387,9.054,10.338,13.921
	c6.952,4.867,12.77,4.915,16.619,4.948c2.813,0.023,3.76,0.032,5.871,1.509c2.115,1.481,2.447,2.369,3.432,5.005
	c1.348,3.606,3.386,9.056,10.34,13.924c6.952,4.866,12.77,4.916,16.619,4.95c2.815,0.024,3.763,0.032,5.876,1.511
	c2.115,1.482,2.448,2.37,3.435,5.007c1.348,3.606,3.387,9.055,10.34,13.923c6.954,4.867,12.775,4.917,16.628,4.951
	c2.819,0.024,3.768,0.032,5.883,1.512c0.11,0.077,0.221,0.151,0.333,0.223c5.464,3.493,7.076,10.769,3.593,16.22
	c-2.384,3.729-6.506,5.701-10.682,5.42L153.801,53.7c-3.193-2.13-7.357-2.13-10.549,0l-111.61,74.412
	c-4.217,0.315-8.412-1.668-10.798-5.4C17.364,117.264,18.995,109.981,24.482,106.474z M54.786,135.539l93.74-62.498l93.74,62.498
	H54.786z M168.117,270.959h-39.182v-65.159c0-10.802,8.789-19.591,19.591-19.591c10.802,0,19.591,8.789,19.591,19.591V270.959z
	 M232.542,260.063c0,6.008-4.887,10.896-10.895,10.896h-34.511v-65.159c0-21.289-17.32-38.609-38.609-38.609
	c-21.289,0-38.609,17.32-38.609,38.609v65.159H75.406c-6.007,0-10.895-4.888-10.895-10.896V154.558h168.031V260.063z"/>
<g>
</g>
<g>
</g>
<g>
</g>
<g>
</g>
<g>
</g>
<g>
</g>
<g>
</g>
<g>
</g>
<g>
</g>
<g>
</g>
<g>
</g>
<g>
</g>
<g>
</g>
<g>
</g>
<g>
</g>
</svg>
