<?xml version="1.0" encoding="iso-8859-1"?>
<!-- Generator: Adobe Illustrator 19.0.0, SVG Export Plug-In . SVG Version: 6.00 Build 0)  -->
<svg version="1.1" id="Layer_1" xmlns="http://www.w3.org/2000/svg" xmlns:xlink="http://www.w3.org/1999/xlink" x="0px" y="0px"
	 viewBox="0 0 512 512" style="enable-background:new 0 0 512 512;" xml:space="preserve">
<g>
	<g>
		<g>
			<path d="M411.584,160h-38.251c-5.888,0-10.667,4.779-10.667,10.667s4.779,10.667,10.667,10.667h64
				c1.387,0,2.773-0.277,4.075-0.811c2.603-1.088,4.693-3.157,5.781-5.781c0.533-1.301,0.811-2.688,0.811-4.075v-64
				C448,100.779,443.221,96,437.333,96c-5.888,0-10.667,4.779-10.667,10.667v38.251L316.885,35.136c-4.16-4.16-10.923-4.16-15.083,0
				c-4.16,4.16-4.16,10.923,0,15.083L411.584,160z"/>
			<path d="M501.333,373.333h-96v-74.667c0-5.888-4.779-10.667-10.667-10.667h-96v-74.667c0-5.888-4.779-10.667-10.667-10.667h-96
				V128c0-5.888-4.779-10.667-10.667-10.667h-96V42.667C85.333,36.779,80.555,32,74.667,32h-64C4.779,32,0,36.779,0,42.667
				s4.779,10.667,10.667,10.667H64V128c0,5.888,4.779,10.667,10.667,10.667h96v74.667c0,5.888,4.779,10.667,10.667,10.667h96v74.667
				c0,5.888,4.779,10.667,10.667,10.667h96V384c0,5.888,4.779,10.667,10.667,10.667h96v74.667c0,5.888,4.779,10.667,10.667,10.667
				c5.888,0,10.667-4.779,10.667-10.667V384C512,378.112,507.221,373.333,501.333,373.333z"/>
		</g>
	</g>
</g>
<g>
</g>
<g>
</g>
<g>
</g>
<g>
</g>
<g>
</g>
<g>
</g>
<g>
</g>
<g>
</g>
<g>
</g>
<g>
</g>
<g>
</g>
<g>
</g>
<g>
</g>
<g>
</g>
<g>
</g>
</svg>
