<?xml version="1.0" encoding="iso-8859-1"?>
<!-- Generator: Adobe Illustrator 19.0.0, SVG Export Plug-In . SVG Version: 6.00 Build 0)  -->
<svg version="1.1" id="Layer_1" xmlns="http://www.w3.org/2000/svg" xmlns:xlink="http://www.w3.org/1999/xlink" x="0px" y="0px"
	 viewBox="0 0 512 512" style="enable-background:new 0 0 512 512;" xml:space="preserve">
<g>
	<g>
		<path d="M503.83,0H8.17C3.658,0,0,3.658,0,8.17v98.043c0,4.512,3.658,8.17,8.17,8.17h13.617V503.83c0,4.512,3.658,8.17,8.17,8.17
			h452.085c4.512,0,8.17-3.658,8.17-8.17V114.383h13.617c4.512,0,8.17-3.658,8.17-8.17V8.17C512,3.658,508.342,0,503.83,0z
			 M495.66,98.043H95.319c-4.512,0-8.17,3.658-8.17,8.17s3.658,8.17,8.17,8.17h378.553V495.66H38.128V114.383h24.511
			c4.512,0,8.17-3.658,8.17-8.17s-3.658-8.17-8.17-8.17H16.34V16.34H495.66V98.043z"/>
	</g>
</g>
<g>
	<g>
		<path d="M329.532,163.404H182.468c-4.512,0-8.17,3.658-8.17,8.17v21.787c0,22.526,18.325,40.851,40.851,40.851h81.702
			c22.526,0,40.851-18.325,40.851-40.851v-21.787C337.702,167.062,334.044,163.404,329.532,163.404z M321.362,193.362
			c0,13.516-10.995,24.511-24.511,24.511h-81.702c-13.516,0-24.511-10.995-24.511-24.511v-13.617h130.723V193.362z"/>
	</g>
</g>
<g>
	<g>
		<path d="M384,272.34H128c-22.526,0-40.851,18.325-40.851,40.851v92.596c0,22.526,18.325,40.851,40.851,40.851h256
			c22.526,0,40.851-18.325,40.851-40.851v-92.596C424.851,290.666,406.526,272.34,384,272.34z M174.298,430.298H128
			c-13.516,0-24.511-10.995-24.511-24.511v-73.532h70.809V430.298z M174.298,315.915h-70.809v-2.723
			c0-13.516,10.995-24.511,24.511-24.511h46.298V315.915z M408.511,315.915H384c-4.512,0-8.17,3.658-8.17,8.17
			c0,4.512,3.658,8.17,8.17,8.17h24.511v73.532c0,13.516-10.995,24.511-24.511,24.511H190.638v-98.043h160.681
			c4.512,0,8.17-3.658,8.17-8.17c0-4.512-3.658-8.17-8.17-8.17H190.638v-27.234H384c13.516,0,24.511,10.995,24.511,24.511V315.915z"
			/>
	</g>
</g>
<g>
</g>
<g>
</g>
<g>
</g>
<g>
</g>
<g>
</g>
<g>
</g>
<g>
</g>
<g>
</g>
<g>
</g>
<g>
</g>
<g>
</g>
<g>
</g>
<g>
</g>
<g>
</g>
<g>
</g>
</svg>
