<?xml version="1.0" encoding="iso-8859-1"?>
<!-- Generator: Adobe Illustrator 19.0.0, SVG Export Plug-In . SVG Version: 6.00 Build 0)  -->
<svg version="1.1" id="Layer_1" xmlns="http://www.w3.org/2000/svg" xmlns:xlink="http://www.w3.org/1999/xlink" x="0px" y="0px"
	 viewBox="0 0 512 512" style="enable-background:new 0 0 512 512;" xml:space="preserve">
<g>
	<g>
		<path d="M428.218,217.018c6.427,0,11.636-5.21,11.636-11.636v-32c0-1.217-0.188-2.389-0.534-3.492
			c-3.29-43.77-22.151-84.885-53.317-116.038c-1.981-1.981-3.86-3.778-5.71-5.462c-0.101-0.093-0.206-0.183-0.307-0.276
			c-0.043-0.036-0.084-0.077-0.127-0.114C345.939,17.045,301.979,0,256,0c-46.174,0-90.311,17.181-124.275,48.372
			c-34.652,31.782-55.542,74.846-59.043,121.513c-0.348,1.104-0.536,2.278-0.536,3.497v163.491v163.491
			c0,6.427,5.21,11.636,11.636,11.636H256h172.218c6.427,0,11.636-5.21,11.636-11.636V336.873v-54.109
			c0-6.427-5.21-11.636-11.636-11.636c-6.427,0-11.636,5.21-11.636,11.636v42.473h-62.836V185.018h62.836v20.364
			C416.582,211.809,421.791,217.018,428.218,217.018z M139.503,73.34l88.405,88.405H96.931
			C101.492,128.484,116.283,97.754,139.503,73.34z M158.255,488.727H95.418V348.509h62.836V488.727z M158.255,325.236H95.418
			V185.018h62.836V325.236z M244.364,488.727h-62.836V348.509h62.836V488.727z M244.364,325.236h-62.836V185.018h62.836V325.236z
			 M244.364,145.289l-87.643-87.643C181.903,37.795,212.337,26,244.364,23.694V145.289z M267.636,23.694
			c32.01,2.305,62.436,14.096,87.639,33.955l-87.639,87.64V23.694z M330.473,488.727h-62.836V348.509h62.836V488.727z
			 M330.473,325.236h-62.836V185.018h62.836V325.236z M416.582,348.509v140.218h-62.836V348.509H416.582z M284.092,161.745
			l88.403-88.403c23.167,24.4,37.995,55.296,42.565,88.403H284.092z"/>
	</g>
</g>
<g>
	<g>
		<path d="M428.218,229.818c-6.427,0-11.636,5.21-11.636,11.636v5.702c0,6.427,5.21,11.636,11.636,11.636
			c6.427,0,11.636-5.21,11.636-11.636v-5.702C439.855,235.028,434.645,229.818,428.218,229.818z"/>
	</g>
</g>
<g>
</g>
<g>
</g>
<g>
</g>
<g>
</g>
<g>
</g>
<g>
</g>
<g>
</g>
<g>
</g>
<g>
</g>
<g>
</g>
<g>
</g>
<g>
</g>
<g>
</g>
<g>
</g>
<g>
</g>
</svg>
